<svg width="28" height="28" viewBox="0 0 28 28" fill="none" xmlns="http://www.w3.org/2000/svg">
<path d="M9.86164 21.9491L5.63522 24.2313C5.39583 24.3641 5.17147 24.5224 4.96604 24.7033C7.47852 26.8235 10.6577 27.9906 13.9452 27.9996C17.2327 28.0086 20.4183 26.859 22.9424 24.7526C22.7255 24.564 22.4894 24.3987 22.238 24.2595L17.765 22.0266C17.482 21.8836 17.2441 21.6652 17.0775 21.3954C16.9109 21.1257 16.8222 20.8151 16.8211 20.498V18.7441C16.9725 18.5716 17.1136 18.3905 17.2438 18.2017C17.8533 17.3392 18.3283 16.3892 18.6526 15.3841C18.939 15.2956 19.1897 15.1182 19.3683 14.8775C19.5469 14.6368 19.6441 14.3454 19.6458 14.0457V12.1861C19.6443 11.9907 19.6023 11.7977 19.5222 11.6194C19.4422 11.4412 19.3259 11.2815 19.1809 11.1506V8.45273C19.1809 8.45273 19.7374 4.22632 14.0317 4.22632C8.32604 4.22632 8.87548 8.45273 8.87548 8.45273V11.1647C8.73041 11.2956 8.61416 11.4553 8.53412 11.6335C8.45409 11.8118 8.41201 12.0048 8.41057 12.2002V14.088C8.41214 14.3225 8.47222 14.5529 8.58539 14.7583C8.69856 14.9637 8.86122 15.1377 9.05862 15.2643C9.36493 16.5453 9.94131 17.7461 10.7492 18.7863V20.4276C10.7502 20.7335 10.6682 21.034 10.5119 21.297C10.3556 21.56 10.1309 21.7756 9.86164 21.9209V21.9491Z" fill="#C7C3BD"/>
<path d="M14.236 2.19189e-05C11.3443 -0.0514784 8.50779 0.794507 6.11675 2.42155C3.7257 4.04858 1.89769 6.37669 0.88432 9.08546C-0.129053 11.7942 -0.277979 14.7505 0.45803 17.5474C1.19404 20.3443 2.77881 22.8443 4.99422 24.7034C5.19597 24.5211 5.41817 24.3627 5.65636 24.2315L9.83348 21.9492C10.1027 21.8039 10.3274 21.5882 10.4837 21.3253C10.64 21.0623 10.722 20.7618 10.721 20.4559V18.7442C9.91314 17.7039 9.33677 16.5031 9.03046 15.2222C8.83306 15.0955 8.6704 14.9216 8.55723 14.7162C8.44406 14.5108 8.38396 14.2803 8.3824 14.0458V12.1862C8.38384 11.9908 8.42592 11.7978 8.50596 11.6196C8.586 11.4413 8.70224 11.2816 8.84731 11.1507V8.45285C8.84731 8.45285 8.29083 4.22644 14.0035 4.22644C19.7162 4.22644 19.1527 8.45285 19.1527 8.45285V11.1648C19.2978 11.2957 19.414 11.4554 19.4941 11.6336C19.5741 11.8119 19.6162 12.0049 19.6176 12.2003V14.0881C19.616 14.3878 19.5188 14.6792 19.3402 14.9199C19.1615 15.1606 18.9108 15.338 18.6244 15.4264C18.3001 16.4315 17.8251 17.3816 17.2156 18.244C17.0854 18.4329 16.9443 18.614 16.793 18.7864V20.5404C16.794 20.8575 16.8827 21.168 17.0493 21.4378C17.2159 21.7076 17.4538 21.926 17.7369 22.069L22.2098 24.3019C22.4639 24.4369 22.7004 24.6025 22.9142 24.795C25.124 22.9735 26.7218 20.5181 27.4922 17.76C28.2626 15.0019 28.1684 12.0739 27.2224 9.37096C26.2764 6.66806 24.524 4.32038 22.2018 2.64468C19.8796 0.968983 17.0993 0.0459133 14.236 2.19189e-05Z" fill="#EEECE8"/>
</svg>
